<?xml version="1.0" encoding="utf-8"?>
<!-- Generator: Adobe Illustrator 24.3.0, SVG Export Plug-In . SVG Version: 6.00 Build 0)  -->
<svg version="1.1" id="Layer_1" xmlns="http://www.w3.org/2000/svg" xmlns:xlink="http://www.w3.org/1999/xlink" x="0px" y="0px"
	 viewBox="0 0 373.7 121.5" style="enable-background:new 0 0 373.7 121.5;" xml:space="preserve">
<style type="text/css">
	.st0{fill:#939393;}
</style>
<path class="st0" d="M335.9,107.2c-6.7,3.3-14.2,5-21.7,5c-28.7,0-49.6-23.5-49.6-52.2v-0.3c0-28.7,20.6-51.9,49.2-51.9
	s49.6,23.5,49.6,52.2v0.3c0.1,12.8-4.3,25.3-12.6,35.1l-22.2-20.2l-5.5,6.1l28.1,25.5l0.1-0.1l16.2,14.8l6.1-6.6L357.1,101
	c9.9-11.3,15.4-25.9,15.3-41c0.2-0.2,0.2-0.2,0-0.3c0-31.7-23-59.7-58.2-59.7s-58.5,28.4-58.5,60v0.3c0,31.7,23,59.7,58.2,59.7
	c8.9,0.1,17.7-1.9,25.7-5.6L335.9,107.2z"/>
<polygon class="st0" points="206.5,80.6 193.8,78.1 224.5,118 235.4,118 "/>
<path class="st0" d="M194.1,69l7.2-1.2c17.4-3.6,29.9-14.4,29.9-32.4V35c0-19.4-16.4-33-41.5-33H141v116h8.6V70H187L194.1,69z
	 M149.5,10h39.7c21,0,33.3,9.8,33.3,25.4v0.3c0,16.7-14.4,26.5-33.8,26.5h-39.2V10z"/>
<polygon points="7.9,118 8.9,118 9.4,117.2 "/>
<polygon class="st0" points="58,10.6 79.9,58.8 107.6,118 116.4,118 62.3,1.2 54.1,1.2 0,118 7.9,118 55.3,16.6 "/>
</svg>
