<?xml version="1.0" encoding="utf-8"?>
<!-- Generator: Adobe Illustrator 24.3.0, SVG Export Plug-In . SVG Version: 6.00 Build 0)  -->
<svg version="1.1" id="Layer_1" xmlns="http://www.w3.org/2000/svg" xmlns:xlink="http://www.w3.org/1999/xlink" x="0px" y="0px"
	 viewBox="0 0 214.6 121.5" style="enable-background:new 0 0 214.6 121.5;" xml:space="preserve">
<style type="text/css">
	.st0{fill:#757575;}
</style>
<polygon class="st0" points="206.5,80.6 193.8,78.1 224.5,118 235.4,118 "/>
<path class="st0" d="M194.1,69l7.2-1.2c17.4-3.6,29.9-14.4,29.9-32.4V35c0-19.4-16.4-33-41.5-33H141v116h8.6V70H187L194.1,69z
	 M149.5,10h39.7c21,0,33.3,9.8,33.3,25.4v0.3c0,16.7-14.4,26.5-33.8,26.5h-39.2V10z"/>
<polygon points="7.9,118 8.9,118 9.4,117.2 "/>
<polygon class="st0" points="58,10.6 79.9,58.8 107.6,118 116.4,118 62.3,1.2 54.1,1.2 0,118 7.9,118 55.3,16.6 "/>
</svg>
