<svg id="Layer_1" data-name="Layer 1" xmlns="http://www.w3.org/2000/svg" viewBox="0 0 527.87 266.41"><path d="M109.64,160.43H109L72.67,106.05V189H52.61V72.9H74.32l35.32,54.87L145,72.9h21.72V189H146.28V105.72Z" transform="translate(-52.61 -70.91)"/><path d="M361.46,190.94c-33.82,0-59-26.36-59-59.85,0-33.16,24.7-60.18,59.85-60.18,21.39,0,34.32,7.46,45.43,18.07l-13.1,15.08c-9.29-8.62-19.23-14.42-32.5-14.42-22.21,0-38.29,18.24-38.29,41.12s16.08,41.44,38.29,41.44c14.26,0,23.38-5.8,33.33-15.08l13.09,13.26C396.44,183,383.18,190.94,361.46,190.94Z" transform="translate(-52.61 -70.91)"/><path d="M542.71,323A48.42,48.42,0,0,1,521,328c-28.68,0-49.57-23.54-49.57-52.22v-.33c0-28.68,20.56-51.89,49.24-51.89s49.57,23.54,49.57,52.22v.33a53.9,53.9,0,0,1-12.6,35.15l-22.21-20.23-5.5,6.1L558,322.68l.14-.12,16.25,14.76,6.13-6.63-16.58-13.93a61.34,61.34,0,0,0,15.26-40.95c.16-.17.16-.17,0-.33,0-31.67-23-59.69-58.2-59.69s-58.52,28.35-58.52,60v.33c0,31.67,23,59.69,58.19,59.69a59.11,59.11,0,0,0,25.69-5.64Z" transform="translate(-52.61 -70.91)"/><polygon points="360.67 225.48 347.98 223.03 378.66 262.93 389.61 262.93 360.67 225.48"/><path d="M400.86,284.75l7.17-1.2c17.43-3.58,29.87-14.43,29.87-32.44v-.33c0-19.4-16.41-33-41.45-33H347.71V333.84h8.62V285.76h37.46Zm-44.53-59H396c21.05,0,33.32,9.78,33.32,25.37v.33c0,16.74-14.42,26.53-33.82,26.53H356.33Z" transform="translate(-52.61 -70.91)"/><polygon points="229.94 19.86 229.94 1.99 143.9 1.99 143.9 19.86 163.94 19.86 229.94 19.86"/><polygon points="164.29 68.64 222.48 68.64 222.48 50.54 165.99 50.54 143.9 50.54 143.9 118.04 230.77 118.04 230.77 99.81 164.29 99.81 164.29 68.64"/><polygon points="162.12 262.93 163.14 262.93 163.55 262.04 162.12 262.93"/><polygon points="212.22 155.5 234.09 203.63 261.84 262.93 270.57 262.93 216.53 146.05 208.24 146.05 154.19 262.93 162.12 262.93 209.46 161.53 212.22 155.5"/></svg>