<?xml version="1.0" encoding="utf-8"?>
<!-- Generator: Adobe Illustrator 24.3.0, SVG Export Plug-In . SVG Version: 6.00 Build 0)  -->
<svg version="1.1" id="Layer_1" xmlns="http://www.w3.org/2000/svg" xmlns:xlink="http://www.w3.org/1999/xlink" x="0px" y="0px"
	 viewBox="0 0 527.9 266.4" style="enable-background:new 0 0 527.9 266.4;" xml:space="preserve">
<style type="text/css">
	.st0{fill:#111111;}
</style>
<path class="st0" d="M57,89.5h-0.6L20.1,35.1v82.9H0V2h21.7L57,56.9L92.4,2h21.7v116.1H93.7V34.8L57,89.5z"/>
<path class="st0" d="M308.8,120c-33.8,0-59-26.4-59-59.9C249.8,27,274.5,0,309.7,0c21.4,0,34.3,7.5,45.4,18.1L342,33.1
	c-9.3-8.6-19.2-14.4-32.5-14.4c-22.2,0-38.3,18.2-38.3,41.1s16.1,41.4,38.3,41.4c14.3,0,23.4-5.8,33.3-15.1l13.1,13.3
	C343.8,112.1,330.6,120,308.8,120z"/>
<path class="st0" d="M490.1,252.1c-6.7,3.3-14.2,5-21.7,5c-28.7,0-49.6-23.5-49.6-52.2v-0.3c0-28.7,20.6-51.9,49.2-51.9
	s49.6,23.5,49.6,52.2v0.3c0.1,12.8-4.3,25.3-12.6,35.1l-22.2-20.2l-5.5,6.1l28.1,25.5l0.1-0.1l16.2,14.8l6.1-6.6l-16.6-13.9
	c9.9-11.3,15.4-25.9,15.3-41c0.2-0.2,0.2-0.2,0-0.3c0-31.7-23-59.7-58.2-59.7s-58.5,28.4-58.5,60v0.3c0,31.7,23,59.7,58.2,59.7
	c8.9,0.1,17.7-1.9,25.7-5.6L490.1,252.1z"/>
<polygon points="360.7,225.5 348,223 378.7,262.9 389.6,262.9 "/>
<path class="st0" d="M348.2,213.8l7.2-1.2c17.4-3.6,29.9-14.4,29.9-32.4v-0.3c0-19.4-16.4-33-41.5-33h-48.7v116.1h8.6v-48.1h37.5
	L348.2,213.8z M303.7,154.8h39.7c21,0,33.3,9.8,33.3,25.4v0.3c0,16.7-14.4,26.5-33.8,26.5h-39.2V154.8z"/>
<polygon class="st0" points="229.9,19.9 229.9,2 143.9,2 143.9,19.9 163.9,19.9 "/>
<polygon class="st0" points="164.3,68.6 222.5,68.6 222.5,50.5 166,50.5 143.9,50.5 143.9,118 230.8,118 230.8,99.8 164.3,99.8 "/>
<polygon points="162.1,262.9 163.1,262.9 163.6,262 "/>
<polygon class="st0" points="212.2,155.5 234.1,203.6 261.8,262.9 270.6,262.9 216.5,146.1 208.2,146.1 154.2,262.9 162.1,262.9 
	209.5,161.5 "/>
</svg>
