<?xml version="1.0" encoding="utf-8"?>
<!-- Generator: Adobe Illustrator 24.3.0, SVG Export Plug-In . SVG Version: 6.00 Build 0)  -->
<svg version="1.1" id="Layer_1" xmlns="http://www.w3.org/2000/svg" xmlns:xlink="http://www.w3.org/1999/xlink" x="0px" y="0px"
	 viewBox="0 0 298.9 120" style="enable-background:new 0 0 298.9 120;" xml:space="preserve">
<style type="text/css">
	.st0{fill:#C4C4C4;}
</style>
<path class="st0" d="M0,89.5h-0.6l-36.3-54.4V118H-57V2h21.7L0,56.9L35.4,2h21.7v116.1H36.7V34.8L0,89.5z"/>
<path class="st0" d="M251.8,120c-33.8,0-59-26.4-59-59.9C192.8,27,217.5,0,252.7,0c21.4,0,34.3,7.5,45.4,18.1l-13.1,15
	c-9.3-8.6-19.2-14.4-32.5-14.4c-22.2,0-38.3,18.2-38.3,41.1s16.1,41.4,38.3,41.4c14.3,0,23.4-5.8,33.3-15.1l13.1,13.3
	C286.8,112.1,273.6,120,251.8,120z"/>
<polygon class="st0" points="172.9,19.9 172.9,2 86.9,2 86.9,19.9 106.9,19.9 "/>
<polygon class="st0" points="107.3,68.6 165.5,68.6 165.5,50.5 109,50.5 86.9,50.5 86.9,118 173.8,118 173.8,99.8 107.3,99.8 "/>
<polygon points="105.1,262.9 106.1,262.9 106.6,262 "/>
</svg>
