<?xml version="1.0" encoding="utf-8"?>
<!-- Generator: Adobe Illustrator 24.3.0, SVG Export Plug-In . SVG Version: 6.00 Build 0)  -->
<svg version="1.1" id="Layer_1" xmlns="http://www.w3.org/2000/svg" xmlns:xlink="http://www.w3.org/1999/xlink" x="0px" y="0px"
	 viewBox="0 0 355.9 120" style="enable-background:new 0 0 355.9 120;" xml:space="preserve">
<style type="text/css">
	.st0{fill:#4B4B4B;}
</style>
<path class="st0" d="M57,89.5h-0.6L20.1,35.1V118H0V2h21.7L57,56.9L92.4,2h21.7v116.1H93.7V34.8L57,89.5z"/>
<path class="st0" d="M308.8,120c-33.8,0-59-26.4-59-59.9C249.8,27,274.5,0,309.7,0c21.4,0,34.3,7.5,45.4,18.1l-13.1,15
	c-9.3-8.6-19.2-14.4-32.5-14.4c-22.2,0-38.3,18.2-38.3,41.1s16.1,41.4,38.3,41.4c14.3,0,23.4-5.8,33.3-15.1l13.1,13.3
	C343.8,112.1,330.6,120,308.8,120z"/>
<polygon class="st0" points="229.9,19.9 229.9,2 143.9,2 143.9,19.9 163.9,19.9 "/>
<polygon class="st0" points="164.3,68.6 222.5,68.6 222.5,50.5 166,50.5 143.9,50.5 143.9,118 230.8,118 230.8,99.8 164.3,99.8 "/>
<polygon points="162.1,262.9 163.1,262.9 163.6,262 "/>
</svg>
